<svg width="876" height="348" viewBox="0 0 876 348" fill="none" xmlns="http://www.w3.org/2000/svg">
<rect x="0.5" y="0.5" width="875" height="347" rx="4.5" stroke="#9747FF" stroke-dasharray="10 5"/>
<mask id="path-2-inside-1_1_379" fill="white">
<path d="M20 184H848V328H20V184Z"/>
</mask>
<path d="M848 328V327H20V328V329H848V328Z" fill="#D7DAE2" mask="url(#path-2-inside-1_1_379)"/>
<path d="M25.904 241V224.488H29.192V241H25.904ZM20.528 227.032V224.128H34.568V227.032H20.528ZM36.4858 241V229.408H39.6538V241H36.4858ZM38.0698 227.536C37.5578 227.536 37.1338 227.368 36.7978 227.032C36.4618 226.68 36.2938 226.248 36.2938 225.736C36.2938 225.24 36.4618 224.816 36.7978 224.464C37.1338 224.112 37.5578 223.936 38.0698 223.936C38.5978 223.936 39.0218 224.112 39.3418 224.464C39.6778 224.816 39.8458 225.24 39.8458 225.736C39.8458 226.248 39.6778 226.68 39.3418 227.032C39.0218 227.368 38.5978 227.536 38.0698 227.536ZM44.1429 241V224.584H47.2869V241H44.1429ZM41.4309 232.168V229.408H49.9989V232.168H41.4309ZM51.767 241V223.648H54.911V241H51.767ZM63.2407 241.24C62.0247 241.24 60.9447 240.984 60.0007 240.472C59.0567 239.944 58.3047 239.224 57.7447 238.312C57.2007 237.4 56.9287 236.36 56.9287 235.192C56.9287 234.04 57.1927 233.016 57.7207 232.12C58.2647 231.208 59.0007 230.488 59.9287 229.96C60.8567 229.416 61.8887 229.144 63.0247 229.144C64.1447 229.144 65.1287 229.4 65.9767 229.912C66.8407 230.408 67.5127 231.096 67.9927 231.976C68.4887 232.84 68.7367 233.824 68.7367 234.928C68.7367 235.136 68.7207 235.352 68.6887 235.576C68.6727 235.784 68.6327 236.024 68.5687 236.296L58.8247 236.32V233.968L67.1047 233.944L65.8327 234.928C65.8007 234.24 65.6727 233.664 65.4487 233.2C65.2407 232.736 64.9287 232.384 64.5127 232.144C64.1127 231.888 63.6167 231.76 63.0247 231.76C62.4007 231.76 61.8567 231.904 61.3927 232.192C60.9287 232.464 60.5687 232.856 60.3127 233.368C60.0727 233.864 59.9527 234.456 59.9527 235.144C59.9527 235.848 60.0807 236.464 60.3367 236.992C60.6087 237.504 60.9927 237.904 61.4887 238.192C61.9847 238.464 62.5607 238.6 63.2167 238.6C63.8087 238.6 64.3447 238.504 64.8247 238.312C65.3047 238.104 65.7207 237.8 66.0727 237.4L67.9207 239.248C67.3607 239.904 66.6727 240.4 65.8567 240.736C65.0567 241.072 64.1847 241.24 63.2407 241.24Z" fill="#052838"/>
<rect x="816" y="216" width="32" height="32" rx="16" fill="#F7F8FA"/>
<path d="M838.758 234.742L837.575 235.925L832.091 230.442L826.608 235.925L825.425 234.742L832.091 228.075L838.758 234.742Z" fill="#052838"/>
<path d="M24.256 290V279.216H25.76V290H24.256ZM20.48 280.272V278.896H29.52V280.272H20.48ZM32.4666 290.16C31.7093 290.16 31.0266 289.989 30.4186 289.648C29.8106 289.296 29.3306 288.821 28.9786 288.224C28.6266 287.627 28.4506 286.949 28.4506 286.192C28.4506 285.445 28.6213 284.773 28.9626 284.176C29.3146 283.579 29.784 283.109 30.3706 282.768C30.968 282.416 31.6346 282.24 32.3706 282.24C33.0746 282.24 33.6933 282.4 34.2266 282.72C34.7706 283.04 35.192 283.483 35.4906 284.048C35.8 284.613 35.9546 285.253 35.9546 285.968C35.9546 286.075 35.9493 286.192 35.9386 286.32C35.928 286.437 35.9066 286.576 35.8746 286.736H29.4586V285.536H35.1066L34.5786 286C34.5786 285.488 34.488 285.056 34.3066 284.704C34.1253 284.341 33.8693 284.064 33.5386 283.872C33.208 283.669 32.808 283.568 32.3386 283.568C31.848 283.568 31.416 283.675 31.0426 283.888C30.6693 284.101 30.3813 284.4 30.1786 284.784C29.976 285.168 29.8746 285.621 29.8746 286.144C29.8746 286.677 29.9813 287.147 30.1946 287.552C30.408 287.947 30.712 288.256 31.1066 288.48C31.5013 288.693 31.9546 288.8 32.4666 288.8C32.8933 288.8 33.2826 288.725 33.6346 288.576C33.9973 288.427 34.3066 288.203 34.5626 287.904L35.4906 288.848C35.128 289.275 34.68 289.6 34.1466 289.824C33.624 290.048 33.064 290.16 32.4666 290.16ZM42.2824 290L39.9144 286.672L39.6424 286.416L36.6504 282.4H38.3944L40.5544 285.36L40.8264 285.584L44.0264 290H42.2824ZM36.5064 290L39.6424 285.776L40.4584 286.832L38.2024 290H36.5064ZM40.9384 286.4L40.1064 285.376L42.2024 282.4H43.8824L40.9384 286.4ZM46.1928 290V279.216H47.6328V290H46.1928ZM44.3208 283.712V282.4H49.5048V283.712H44.3208Z" fill="#375360"/>
<mask id="path-8-inside-2_1_379" fill="white">
<path d="M20 20H848V116H20V20Z"/>
</mask>
<path d="M848 116V115H20V116V117H848V116Z" fill="#D7DAE2" mask="url(#path-8-inside-2_1_379)"/>
<path d="M25.904 77V60.488H29.192V77H25.904ZM20.528 63.032V60.128H34.568V63.032H20.528ZM36.4858 77V65.408H39.6538V77H36.4858ZM38.0698 63.536C37.5578 63.536 37.1338 63.368 36.7978 63.032C36.4618 62.68 36.2938 62.248 36.2938 61.736C36.2938 61.24 36.4618 60.816 36.7978 60.464C37.1338 60.112 37.5578 59.936 38.0698 59.936C38.5978 59.936 39.0218 60.112 39.3418 60.464C39.6778 60.816 39.8458 61.24 39.8458 61.736C39.8458 62.248 39.6778 62.68 39.3418 63.032C39.0218 63.368 38.5978 63.536 38.0698 63.536ZM44.1429 77V60.584H47.2869V77H44.1429ZM41.4309 68.168V65.408H49.9989V68.168H41.4309ZM51.767 77V59.648H54.911V77H51.767ZM63.2407 77.24C62.0247 77.24 60.9447 76.984 60.0007 76.472C59.0567 75.944 58.3047 75.224 57.7447 74.312C57.2007 73.4 56.9287 72.36 56.9287 71.192C56.9287 70.04 57.1927 69.016 57.7207 68.12C58.2647 67.208 59.0007 66.488 59.9287 65.96C60.8567 65.416 61.8887 65.144 63.0247 65.144C64.1447 65.144 65.1287 65.4 65.9767 65.912C66.8407 66.408 67.5127 67.096 67.9927 67.976C68.4887 68.84 68.7367 69.824 68.7367 70.928C68.7367 71.136 68.7207 71.352 68.6887 71.576C68.6727 71.784 68.6327 72.024 68.5687 72.296L58.8247 72.32V69.968L67.1047 69.944L65.8327 70.928C65.8007 70.24 65.6727 69.664 65.4487 69.2C65.2407 68.736 64.9287 68.384 64.5127 68.144C64.1127 67.888 63.6167 67.76 63.0247 67.76C62.4007 67.76 61.8567 67.904 61.3927 68.192C60.9287 68.464 60.5687 68.856 60.3127 69.368C60.0727 69.864 59.9527 70.456 59.9527 71.144C59.9527 71.848 60.0807 72.464 60.3367 72.992C60.6087 73.504 60.9927 73.904 61.4887 74.192C61.9847 74.464 62.5607 74.6 63.2167 74.6C63.8087 74.6 64.3447 74.504 64.8247 74.312C65.3047 74.104 65.7207 73.8 66.0727 73.4L67.9207 75.248C67.3607 75.904 66.6727 76.4 65.8567 76.736C65.0567 77.072 64.1847 77.24 63.2407 77.24Z" fill="#052838"/>
<rect x="816" y="52" width="32" height="32" rx="16" fill="#F7F8FA"/>
<path d="M838.758 65.2583L837.575 64.075L832.091 69.5583L826.608 64.075L825.425 65.2583L832.091 71.925L838.758 65.2583Z" fill="#052838"/>
</svg>
