<svg width="19" height="19" viewBox="0 0 19 19" fill="none" xmlns="http://www.w3.org/2000/svg">
<path d="M9.5 18.25C14.3325 18.25 18.25 14.3325 18.25 9.5C18.25 4.66751 14.3325 0.75 9.5 0.75C4.66751 0.75 0.75 4.66751 0.75 9.5C0.75 14.3325 4.66751 18.25 9.5 18.25Z" stroke="#FEFEFE" stroke-width="1.5"/>
<path d="M2.58977 4.31885C2.58977 4.31885 4.31877 7.77285 9.49977 7.77285C14.6808 7.77285 16.4098 4.31885 16.4098 4.31885M0.86377 9.06785C0.86377 9.06785 4.31777 12.9558 9.49977 12.9558C14.6818 12.9558 18.1358 9.06985 18.1358 9.06985" stroke="#FEFEFE" stroke-width="1.5" stroke-linecap="round" stroke-linejoin="round"/>
<path d="M7.77279 1.2959C7.77279 1.2959 5.61279 4.7499 5.61279 9.9319C5.61279 15.1139 7.34079 17.7049 7.34079 17.7049M10.7948 18.1369C10.7948 18.1369 12.9548 15.1139 12.9548 9.9319C12.9548 4.7499 11.2268 1.2959 11.2268 1.2959" stroke="#FEFEFE" stroke-width="1.5" stroke-linecap="round" stroke-linejoin="round"/>
</svg>
