<svg width="88" height="88" viewBox="0 0 88 88" fill="none" xmlns="http://www.w3.org/2000/svg">
<path d="M35.4751 50.2335L38.6834 39.7835L30.2501 33.0002H40.7001L44.0001 22.7335L47.3001 33.0002H57.7501L49.2251 39.7835L52.4334 50.2335L44.0001 43.7252L35.4751 50.2335ZM22.0001 84.3335V56.0085C19.6779 53.4418 17.8751 50.5085 16.5917 47.2085C15.3084 43.9085 14.6667 40.3946 14.6667 36.6668C14.6667 28.4779 17.5084 21.5418 23.1917 15.8585C28.8751 10.1752 35.8112 7.3335 44.0001 7.3335C52.189 7.3335 59.1251 10.1752 64.8084 15.8585C70.4917 21.5418 73.3334 28.4779 73.3334 36.6668C73.3334 40.3946 72.6917 43.9085 71.4084 47.2085C70.1251 50.5085 68.3223 53.4418 66.0001 56.0085V84.3335L44.0001 77.0002L22.0001 84.3335ZM44.0001 58.6668C50.1112 58.6668 55.3056 56.5279 59.5834 52.2502C63.8612 47.9724 66.0001 42.7779 66.0001 36.6668C66.0001 30.5557 63.8612 25.3613 59.5834 21.0835C55.3056 16.8057 50.1112 14.6668 44.0001 14.6668C37.889 14.6668 32.6945 16.8057 28.4167 21.0835C24.139 25.3613 22.0001 30.5557 22.0001 36.6668C22.0001 42.7779 24.139 47.9724 28.4167 52.2502C32.6945 56.5279 37.889 58.6668 44.0001 58.6668ZM29.3334 73.4252L44.0001 69.6668L58.6667 73.4252V62.0585C56.5279 63.2807 54.2209 64.2432 51.7459 64.946C49.2709 65.6488 46.689 66.0002 44.0001 66.0002C41.3112 66.0002 38.7292 65.6488 36.2542 64.946C33.7792 64.2432 31.4723 63.2807 29.3334 62.0585V73.4252Z" fill="white"/>
</svg>
