<svg width="152" height="24" viewBox="0 0 152 24" fill="none" xmlns="http://www.w3.org/2000/svg">
<path d="M28.9259 22.328V18.912H33.5739C34.4326 18.912 35.1046 18.66 35.5899 18.156C36.0753 17.652 36.3179 17.036 36.3179 16.308C36.3179 15.804 36.2059 15.356 35.9819 14.964C35.7579 14.572 35.4406 14.264 35.0299 14.04C34.6379 13.816 34.1526 13.704 33.5739 13.704H28.9259V10.372H33.2099C33.9379 10.372 34.5259 10.1947 34.9739 9.84C35.4219 9.46667 35.6459 8.90667 35.6459 8.16C35.6459 7.432 35.4219 6.89067 34.9739 6.536C34.5259 6.16267 33.9379 5.976 33.2099 5.976H28.9259V2.56H34.0499C35.3193 2.56 36.3926 2.79333 37.2699 3.26C38.1659 3.72667 38.8473 4.352 39.3139 5.136C39.7806 5.92 40.0139 6.788 40.0139 7.74C40.0139 8.95333 39.6219 9.98 38.8379 10.82C38.0539 11.66 36.8966 12.2387 35.3659 12.556L35.4779 11.072C37.1393 11.3893 38.4179 12.0333 39.3139 13.004C40.2286 13.9747 40.6859 15.1693 40.6859 16.588C40.6859 17.6707 40.4153 18.6507 39.8739 19.528C39.3513 20.3867 38.5859 21.068 37.5779 21.572C36.5886 22.076 35.3939 22.328 33.9939 22.328H28.9259ZM25.5659 22.328V2.56H29.9059V22.328H25.5659Z" fill="#052838"/>
<path d="M49.1594 22.636C47.9088 22.636 46.7981 22.384 45.8274 21.88C44.8754 21.3573 44.1288 20.648 43.5874 19.752C43.0461 18.8373 42.7754 17.792 42.7754 16.616V8.72H47.0594V16.56C47.0594 17.0267 47.1341 17.428 47.2834 17.764C47.4514 18.1 47.6941 18.3613 48.0114 18.548C48.3288 18.7347 48.7114 18.828 49.1594 18.828C49.7941 18.828 50.2981 18.632 50.6714 18.24C51.0448 17.8293 51.2314 17.2693 51.2314 16.56V8.72H55.5154V16.588C55.5154 17.7827 55.2448 18.8373 54.7034 19.752C54.1621 20.648 53.4154 21.3573 52.4634 21.88C51.5114 22.384 50.4101 22.636 49.1594 22.636Z" fill="#052838"/>
<path d="M58.2052 22.328V8.72H62.4892V22.328H58.2052ZM60.3612 6.844C59.6892 6.844 59.1292 6.62 58.6812 6.172C58.2518 5.70533 58.0372 5.14533 58.0372 4.492C58.0372 3.82 58.2518 3.26 58.6812 2.812C59.1292 2.364 59.6892 2.14 60.3612 2.14C61.0332 2.14 61.5838 2.364 62.0132 2.812C62.4425 3.26 62.6572 3.82 62.6572 4.492C62.6572 5.14533 62.4425 5.70533 62.0132 6.172C61.5838 6.62 61.0332 6.844 60.3612 6.844Z" fill="#052838"/>
<path d="M65.506 22.328V2H69.79V22.328H65.506Z" fill="#052838"/>
<path d="M78.6027 22.608C77.3147 22.608 76.1667 22.3 75.1587 21.684C74.1694 21.068 73.3854 20.228 72.8067 19.164C72.2467 18.1 71.9667 16.8867 71.9667 15.524C71.9667 14.1613 72.2467 12.948 72.8067 11.884C73.3854 10.82 74.1694 9.98 75.1587 9.364C76.1667 8.748 77.3147 8.44 78.6027 8.44C79.5361 8.44 80.3761 8.61733 81.1227 8.972C81.8881 9.32667 82.5134 9.82133 82.9987 10.456C83.5027 11.072 83.7827 11.7813 83.8387 12.584V18.324C83.7827 19.1267 83.5121 19.8547 83.0267 20.508C82.5414 21.1427 81.9161 21.656 81.1507 22.048C80.3854 22.4213 79.5361 22.608 78.6027 22.608ZM79.3587 18.744C79.9747 18.744 80.5067 18.6133 80.9547 18.352C81.4027 18.072 81.7574 17.6893 82.0187 17.204C82.2801 16.7187 82.4107 16.1587 82.4107 15.524C82.4107 14.8893 82.2801 14.3387 82.0187 13.872C81.7761 13.3867 81.4214 13.004 80.9547 12.724C80.5067 12.444 79.9841 12.304 79.3867 12.304C78.7894 12.304 78.2574 12.444 77.7907 12.724C77.3427 13.004 76.9787 13.3867 76.6987 13.872C76.4374 14.3573 76.3067 14.908 76.3067 15.524C76.3067 16.14 76.4374 16.6907 76.6987 17.176C76.9601 17.6613 77.3241 18.044 77.7907 18.324C78.2574 18.604 78.7801 18.744 79.3587 18.744ZM86.4427 22.328H82.2427V18.66L82.8867 15.356L82.1587 12.052V2H86.4427V22.328Z" fill="#052838"/>
<path d="M94.7791 22.328L88.4231 2.56H92.7911L97.4391 17.764H95.7311L100.267 2.56H103.711L108.247 17.764H106.567L111.187 2.56H115.527L109.171 22.328H105.727L101.163 7.124H102.787L98.2231 22.328H94.7791Z" fill="#052838"/>
<path d="M117.514 22.328V8.72H121.798V22.328H117.514ZM119.67 6.844C118.998 6.844 118.438 6.62 117.99 6.172C117.56 5.70533 117.346 5.14533 117.346 4.492C117.346 3.82 117.56 3.26 117.99 2.812C118.438 2.364 118.998 2.14 119.67 2.14C120.342 2.14 120.892 2.364 121.322 2.812C121.751 3.26 121.966 3.82 121.966 4.492C121.966 5.14533 121.751 5.70533 121.322 6.172C120.892 6.62 120.342 6.844 119.67 6.844Z" fill="#052838"/>
<path d="M129.771 22.664C128.968 22.664 128.175 22.5613 127.391 22.356C126.625 22.1507 125.907 21.8613 125.235 21.488C124.581 21.096 124.021 20.648 123.555 20.144L125.991 17.68C126.439 18.1653 126.971 18.548 127.587 18.828C128.203 19.0893 128.875 19.22 129.603 19.22C130.107 19.22 130.489 19.1453 130.751 18.996C131.031 18.8467 131.171 18.6413 131.171 18.38C131.171 18.044 131.003 17.792 130.667 17.624C130.349 17.4373 129.939 17.2787 129.435 17.148C128.931 16.9987 128.399 16.84 127.839 16.672C127.279 16.504 126.747 16.2707 126.243 15.972C125.739 15.6733 125.328 15.2627 125.011 14.74C124.693 14.1987 124.535 13.5173 124.535 12.696C124.535 11.8187 124.759 11.0627 125.207 10.428C125.655 9.77467 126.289 9.26133 127.111 8.888C127.932 8.51467 128.893 8.328 129.995 8.328C131.152 8.328 132.216 8.53333 133.187 8.944C134.176 9.336 134.979 9.924 135.595 10.708L133.159 13.172C132.729 12.668 132.244 12.3133 131.703 12.108C131.18 11.9027 130.667 11.8 130.163 11.8C129.677 11.8 129.313 11.8747 129.071 12.024C128.828 12.1547 128.707 12.3507 128.707 12.612C128.707 12.892 128.865 13.116 129.183 13.284C129.5 13.452 129.911 13.6013 130.415 13.732C130.919 13.8627 131.451 14.0213 132.011 14.208C132.571 14.3947 133.103 14.6467 133.607 14.964C134.111 15.2813 134.521 15.7107 134.839 16.252C135.156 16.7747 135.315 17.4653 135.315 18.324C135.315 19.6493 134.811 20.704 133.803 21.488C132.813 22.272 131.469 22.664 129.771 22.664Z" fill="#052838"/>
<path d="M144.359 22.636C142.884 22.636 141.568 22.3373 140.411 21.74C139.272 21.124 138.376 20.2747 137.723 19.192C137.069 18.1093 136.743 16.8867 136.743 15.524C136.743 14.1613 137.06 12.948 137.695 11.884C138.348 10.8013 139.225 9.952 140.327 9.336C141.428 8.72 142.669 8.412 144.051 8.412C145.395 8.412 146.58 8.70133 147.607 9.28C148.633 9.85867 149.436 10.6613 150.015 11.688C150.612 12.7147 150.911 13.8907 150.911 15.216C150.911 15.4587 150.892 15.72 150.855 16C150.836 16.2613 150.789 16.5693 150.715 16.924L138.983 16.952V14.012L148.895 13.984L147.047 15.216C147.028 14.432 146.907 13.788 146.683 13.284C146.459 12.7613 146.123 12.3693 145.675 12.108C145.245 11.828 144.713 11.688 144.079 11.688C143.407 11.688 142.819 11.8467 142.315 12.164C141.829 12.4627 141.447 12.892 141.167 13.452C140.905 14.012 140.775 14.6933 140.775 15.496C140.775 16.2987 140.915 16.9893 141.195 17.568C141.493 18.128 141.904 18.5667 142.427 18.884C142.968 19.1827 143.603 19.332 144.331 19.332C145.003 19.332 145.609 19.22 146.151 18.996C146.692 18.7533 147.168 18.3987 147.579 17.932L149.931 20.284C149.259 21.068 148.447 21.656 147.495 22.048C146.543 22.44 145.497 22.636 144.359 22.636Z" fill="#052838"/>
<path d="M3 22.665L3.00013 14.4462L11.0441 14.4462V5.61853L18.9586 5.61853" stroke="#052838" stroke-width="6"/>
</svg>
