<svg width="156" height="24" viewBox="0 0 156 24" fill="none" xmlns="http://www.w3.org/2000/svg">
<path d="M22.6288 7.61056C22.6168 6.71079 22.4484 5.81997 22.131 4.97795C21.8558 4.2677 21.4355 3.62268 20.8969 3.08408C20.3583 2.54547 19.7133 2.12515 19.003 1.84994C18.1718 1.53792 17.2937 1.36921 16.4061 1.35098C15.2632 1.2999 14.9009 1.28564 11.9998 1.28564C9.09867 1.28564 8.72682 1.28564 7.59228 1.35098C6.70504 1.36934 5.82733 1.53806 4.9965 1.84994C4.28615 2.12495 3.64102 2.54522 3.1024 3.08384C2.56377 3.62247 2.14351 4.26759 1.8685 4.97795C1.55585 5.80852 1.38751 6.68642 1.37073 7.57373C1.31964 8.71777 1.3042 9.08011 1.3042 11.9812C1.3042 14.8823 1.3042 15.253 1.37073 16.3887C1.38855 17.2773 1.55606 18.1541 1.8685 18.9868C2.14397 19.697 2.56454 20.3419 3.10335 20.8802C3.64215 21.4186 4.28734 21.8387 4.99769 22.1137C5.82624 22.4382 6.7041 22.619 7.59347 22.6483C8.73752 22.6993 9.09986 22.7148 12.001 22.7148C14.902 22.7148 15.2739 22.7148 16.4084 22.6483C17.296 22.6308 18.1742 22.4625 19.0054 22.1505C19.7155 21.875 20.3603 21.4545 20.8989 20.916C21.4374 20.3774 21.8579 19.7325 22.1334 19.0225C22.4458 18.1909 22.6134 17.3141 22.6312 16.4243C22.6823 15.2815 22.6977 14.9191 22.6977 12.0168C22.6953 9.11575 22.6953 8.74747 22.6288 7.61056ZM11.9926 17.4674C8.95848 17.4674 6.50051 15.0094 6.50051 11.9753C6.50051 8.94112 8.95848 6.48314 11.9926 6.48314C13.4492 6.48314 14.8462 7.06178 15.8762 8.09175C16.9061 9.12172 17.4848 10.5187 17.4848 11.9753C17.4848 13.4319 16.9061 14.8288 15.8762 15.8588C14.8462 16.8888 13.4492 17.4674 11.9926 17.4674ZM17.7034 7.56066C17.5351 7.56082 17.3685 7.5278 17.2131 7.46349C17.0576 7.39919 16.9164 7.30486 16.7974 7.18591C16.6785 7.06696 16.5842 6.92572 16.5199 6.77027C16.4555 6.61482 16.4225 6.44822 16.4227 6.28C16.4227 6.1119 16.4558 5.94544 16.5201 5.79013C16.5845 5.63483 16.6787 5.49372 16.7976 5.37485C16.9165 5.25598 17.0576 5.1617 17.2129 5.09737C17.3682 5.03304 17.5347 4.99993 17.7028 4.99993C17.8709 4.99993 18.0373 5.03304 18.1926 5.09737C18.3479 5.1617 18.489 5.25598 18.6079 5.37485C18.7268 5.49372 18.8211 5.63483 18.8854 5.79013C18.9497 5.94544 18.9828 6.1119 18.9828 6.28C18.9828 6.98804 18.4102 7.56066 17.7034 7.56066Z" fill="#052838"/>
<path d="M11.9926 15.5428C13.9629 15.5428 15.5602 13.9456 15.5602 11.9753C15.5602 10.005 13.9629 8.4077 11.9926 8.4077C10.0223 8.4077 8.42507 10.005 8.42507 11.9753C8.42507 13.9456 10.0223 15.5428 11.9926 15.5428Z" fill="#052838"/>
<g clip-path="url(#clip0_50_197)">
<path d="M56 0C49.376 0 44 5.376 44 12C44 18.624 49.376 24 56 24C62.624 24 68 18.624 68 12C68 5.376 62.624 0 56 0ZM61.568 8.16C61.388 10.056 60.608 14.664 60.212 16.788C60.044 17.688 59.708 17.988 59.396 18.024C58.7 18.084 58.172 17.568 57.5 17.124C56.444 16.428 55.844 15.996 54.824 15.324C53.636 14.544 54.404 14.112 55.088 13.416C55.268 13.236 58.34 10.44 58.4 10.188C58.4083 10.1498 58.4072 10.1102 58.3968 10.0726C58.3863 10.0349 58.3668 10.0004 58.34 9.972C58.268 9.912 58.172 9.936 58.088 9.948C57.98 9.972 56.3 11.088 53.024 13.296C52.544 13.62 52.112 13.788 51.728 13.776C51.296 13.764 50.48 13.536 49.868 13.332C49.112 13.092 48.524 12.96 48.572 12.54C48.596 12.324 48.896 12.108 49.46 11.88C52.964 10.356 55.292 9.348 56.456 8.868C59.792 7.476 60.476 7.236 60.932 7.236C61.028 7.236 61.256 7.26 61.4 7.38C61.52 7.476 61.556 7.608 61.568 7.704C61.556 7.776 61.58 7.992 61.568 8.16Z" fill="#052838"/>
</g>
<path d="M109.101 7.24442C109.116 7.45232 109.116 7.65903 109.116 7.86574C109.116 14.1918 104.301 21.4814 95.5018 21.4814C92.7908 21.4814 90.2722 20.6961 88.1528 19.3323C88.5377 19.3763 88.9084 19.3917 89.3088 19.3917C91.4626 19.3969 93.5554 18.6767 95.2499 17.3472C94.2513 17.3291 93.2833 16.9996 92.481 16.4048C91.6787 15.8099 91.0822 14.9794 90.7747 14.0291C91.0706 14.073 91.3676 14.1027 91.6788 14.1027C92.1077 14.1027 92.5389 14.0433 92.9393 13.94C91.8555 13.7212 90.881 13.1337 90.1815 12.2776C89.4819 11.4215 89.1005 10.3494 89.102 9.24382V9.18442C89.74 9.53964 90.4801 9.76179 91.2642 9.79149C90.6073 9.355 90.0687 8.76271 89.6964 8.06745C89.3242 7.3722 89.1297 6.5956 89.1306 5.80694C89.1306 4.91832 89.367 4.10335 89.7816 3.39292C90.984 4.87201 92.4837 6.08203 94.1835 6.94464C95.8833 7.80724 97.7454 8.30318 99.6491 8.40034C99.5755 8.04394 99.5303 7.67448 99.5303 7.30382C99.53 6.67532 99.6536 6.05292 99.8939 5.47221C100.134 4.89149 100.487 4.36385 100.931 3.91943C101.376 3.47502 101.903 3.12255 102.484 2.88218C103.065 2.6418 103.687 2.51824 104.316 2.51856C105.694 2.51856 106.937 3.09592 107.812 4.02969C108.883 3.82252 109.911 3.43144 110.848 2.87377C110.491 3.97958 109.743 4.91725 108.744 5.51113C109.695 5.40276 110.623 5.15289 111.499 4.76982C110.845 5.7239 110.034 6.56054 109.101 7.24442Z" fill="#052838"/>
<g clip-path="url(#clip1_50_197)">
<path d="M144.001 0.133301C137.441 0.133301 132.122 5.45198 132.122 12.0121C132.122 17.9402 136.465 22.8538 142.145 23.7484V15.4466H139.128V12.0121H142.145V9.39495C142.145 6.41545 143.919 4.77244 146.631 4.77244C147.931 4.77244 149.292 5.0041 149.292 5.0041V7.92539H147.791C146.317 7.92539 145.857 8.84253 145.857 9.78224V12.0097H149.148L148.622 15.4442H145.857V23.746C151.536 22.8562 155.88 17.9414 155.88 12.0121C155.88 5.45198 150.561 0.133301 144.001 0.133301Z" fill="#052838"/>
</g>
<defs>
<clipPath id="clip0_50_197">
<rect width="24" height="24" fill="white" transform="translate(44)"/>
</clipPath>
<clipPath id="clip1_50_197">
<rect width="24" height="24" fill="white" transform="translate(132)"/>
</clipPath>
</defs>
</svg>
